<!-- Generated by IcoMoon.io -->
<svg version="1.1" xmlns="http://www.w3.org/2000/svg" width="32" height="32" viewBox="0 0 32 32">
<title>search</title>
<path opacity="0.5" fill="#000" d="M23.375 19.5c1.25-1.967 1.983-4.3 1.983-6.808 0-7.008-5.675-12.692-12.675-12.692-7.008 0-12.683 5.683-12.683 12.692s5.675 12.692 12.675 12.692c2.542 0 4.908-0.75 6.892-2.033l0.575-0.4 9.050 9.050 2.808-2.858-9.042-9.050 0.417-0.592zM19.783 5.6c1.892 1.892 2.933 4.408 2.933 7.083s-1.042 5.192-2.933 7.083-4.408 2.933-7.083 2.933c-2.675 0-5.192-1.042-7.083-2.933s-2.933-4.408-2.933-7.083c0-2.675 1.042-5.192 2.933-7.083s4.408-2.933 7.083-2.933c2.675 0 5.192 1.042 7.083 2.933z"></path>
</svg>
